<?xml version="1.0" encoding="utf-8"?>
<svg viewBox="393.5056 336.8052 71.9315 90.9028" xmlns="http://www.w3.org/2000/svg" xmlns:xlink="http://www.w3.org/1999/xlink">
    <defs>
        <linearGradient id="g1" x1="0" y1="61.9" x2=".5" y2="61.9" gradientTransform="matrix(1, 0, 0, 1, 323.437851, 336.809219)" xlink:href="#P">
            <stop stop-color="#f7975d"/>
            <stop offset="1" stop-color="#f37161"/>
        </linearGradient>
        <linearGradient id="P" gradientUnits="userSpaceOnUse"/>
        <linearGradient id="g2" x1="0" y1="61.9" x2=".5" y2="61.9" gradientTransform="matrix(1, 0, 0, 1, 323.437851, 336.809219)" xlink:href="#P">
            <stop stop-color="#f7975d"/>
            <stop offset="1" stop-color="#f37161"/>
        </linearGradient>
        <linearGradient id="g3" x1="-0.1" y1="62.5" x2=".5" y2="62.5" gradientTransform="matrix(1, 0, 0, 1, 323.437851, 336.809219)" xlink:href="#P">
            <stop stop-color="#f7975d"/>
            <stop offset="1" stop-color="#f37161"/>
        </linearGradient>
        <linearGradient id="g4" x1=".1" y1="62.5" x2=".6" y2="62.5" gradientTransform="matrix(1, 0, 0, 1, 323.437851, 336.809219)" xlink:href="#P">
            <stop stop-color="#f7975d"/>
            <stop offset="1" stop-color="#f37161"/>
        </linearGradient>
        <linearGradient id="g5" x1="0" y1="54.1" x2=".5" y2="54.1" gradientTransform="matrix(1, 0, 0, 1, 323.437851, 336.809219)" xlink:href="#P">
            <stop stop-color="#f7975d"/>
            <stop offset="1" stop-color="#f37161"/>
        </linearGradient>
        <linearGradient id="g6" x1="8.1" y1="77.7" x2="8.6" y2="77.5" gradientTransform="matrix(1, 0, 0, 1, 323.437851, 336.809219)" xlink:href="#P">
            <stop stop-color="#f7975d"/>
            <stop offset="1" stop-color="#f37161"/>
        </linearGradient>
    </defs>
    <path class="c" d="M 440.837 398.308 L 440.837 398.408 L 440.137 399.108 C 440.071 399.042 440.037 399.008 440.037 399.008 L 440.837 398.308 Z" style="fill: url('#g1');" transform="matrix(0.9999999999999999, 0, 0, 0.9999999999999999, 0, -3.552713678800501e-15)"/>
    <path class="d" d="M 440.437 398.708 Z M 440.537 398.808 L 440.537 398.708 L 440.537 398.808 Z" style="fill: url('#g2');" transform="matrix(0.9999999999999999, 0, 0, 0.9999999999999999, 0, -3.552713678800501e-15)"/>
    <path class="e" d="M 411.837 410.908 C 410.737 411.008 409.837 410.208 409.837 409.108 L 409.837 407.008 C 409.837 401.008 405.637 395.008 401.537 389.208 C 400.337 387.408 399.037 385.508 397.837 383.608 C 394.037 377.508 392.637 370.208 394.037 363.208 C 396.437 350.208 408.437 339.508 423.037 337.308 C 425.104 336.975 427.204 336.808 429.337 336.808 C 437.737 336.708 445.837 339.308 452.537 344.208 C 460.737 350.308 465.437 359.208 465.437 368.608 C 465.437 373.308 464.237 377.908 461.937 382.108 L 461.737 382.508 L 457.437 380.308 L 457.737 379.808 C 459.537 376.308 460.437 372.508 460.437 368.608 C 460.437 360.408 456.337 352.708 449.337 347.508 C 443.437 343.208 436.337 341.008 429.137 341.008 C 427.271 341.008 425.437 341.142 423.637 341.408 C 410.937 343.408 400.637 352.608 398.537 363.908 C 397.337 370.008 398.537 376.308 401.837 381.608 C 402.837 383.208 403.937 384.908 405.237 386.708 L 405.337 386.808 C 409.437 392.808 413.737 398.908 413.737 405.608 L 413.737 406.408 L 431.037 406.508 L 431.037 407.008 C 431.137 408.108 431.537 409.208 432.337 410.108 L 433.037 410.908 L 411.837 410.908 Z" style="fill: rgb(157, 158, 158);" transform="matrix(0.9999999999999999, 0, 0, 0.9999999999999999, 0, -3.552713678800501e-15)"/>
    <path class="e" d="M 464.937 368.608 C 464.837 373.208 463.737 377.708 461.537 381.808 L 458.137 380.108 L 458.137 380.008 C 460.037 376.508 460.937 372.608 460.937 368.608 C 460.937 360.308 456.837 352.408 449.637 347.008 C 443.637 342.708 436.537 340.408 429.137 340.508 C 427.271 340.508 425.404 340.642 423.537 340.908 C 410.637 342.908 400.137 352.308 397.937 363.808 C 396.737 370.008 397.937 376.508 401.337 381.808 C 402.437 383.508 403.537 385.208 404.837 387.008 L 404.837 387.108 C 408.937 393.008 413.237 399.108 413.237 405.608 L 413.237 406.908 L 430.537 407.008 C 430.537 408.308 431.037 409.508 431.937 410.408 L 411.837 410.408 C 411.037 410.508 410.437 409.908 410.337 409.108 L 410.337 407.008 C 410.337 400.808 406.137 394.708 402.037 388.908 C 400.737 387.008 399.437 385.108 398.237 383.308 C 394.537 377.308 393.137 370.208 394.537 363.308 C 396.937 350.508 408.737 340.008 423.137 337.808 C 433.637 336.208 444.237 338.708 452.237 344.608 C 460.337 350.608 464.937 359.308 464.937 368.608 Z" style="fill: rgb(157, 158, 158);" transform="matrix(0.9999999999999999, 0, 0, 0.9999999999999999, 0, -3.552713678800501e-15)"/>
    <path class="f" d="M 441.337 398.708 C 441.404 398.775 441.504 398.808 441.637 398.808 L 441.337 399.908 C 441.137 399.842 440.971 399.775 440.837 399.708 L 441.337 398.708 Z" style="fill: url('#g3');" transform="matrix(0.9999999999999999, 0, 0, 0.9999999999999999, 0, -3.552713678800501e-15)"/>
    <path class="g" d="M 441.037 399.208 C 441.171 399.275 441.304 399.342 441.437 399.408 C 441.304 399.342 441.171 399.275 441.037 399.208 Z" style="fill: url('#g4');" transform="matrix(0.9999999999999999, 0, 0, 0.9999999999999999, 0, -3.552713678800501e-15)"/>
    <path class="e" d="M 442.337 416.408 C 443.637 416.608 444.437 417.808 444.137 419.108 C 443.937 420.308 442.737 421.108 441.537 420.908 L 414.237 420.908 C 413.971 420.975 413.704 420.975 413.437 420.908 C 412.237 420.708 411.437 419.508 411.637 418.208 C 411.837 417.008 413.037 416.208 414.237 416.408 L 441.537 416.408 C 441.804 416.342 442.071 416.342 442.337 416.408 Z" style="fill: rgb(157, 158, 158);" transform="matrix(0.9999999999999999, 0, 0, 0.9999999999999999, 0, -3.552713678800501e-15)"/>
    <path class="e" d="M 436.137 425.808 C 436.137 426.808 434.937 427.708 433.537 427.708 L 422.337 427.708 C 420.837 427.708 419.637 426.808 419.637 425.808 C 419.637 424.708 420.837 423.808 422.337 423.808 L 433.537 423.808 C 434.937 423.808 436.137 424.708 436.137 425.808 Z" style="fill: rgb(157, 158, 158);" transform="matrix(0.9999999999999999, 0, 0, 0.9999999999999999, 0, -3.552713678800501e-15)"/>
    <path class="h" d="M 437.137 378.408 C 437.537 378.408 437.904 378.508 438.237 378.708 L 439.837 379.508 C 439.904 381.975 439.971 384.442 440.037 386.908 C 440.137 388.508 440.137 390.008 440.237 391.608 C 440.137 392.508 440.437 393.408 440.837 394.308 C 441.537 395.108 442.437 395.808 443.537 396.108 C 444.937 396.642 446.404 396.942 447.937 397.008 C 448.604 397.075 449.271 397.108 449.937 397.108 L 438.237 403.108 C 437.537 403.408 436.737 403.408 436.037 403.108 C 435.437 402.808 435.037 402.108 435.037 401.508 L 435.037 380.308 C 435.037 379.608 435.437 379.008 436.037 378.708 C 436.371 378.508 436.737 378.408 437.137 378.408 Z" style="fill: url('#g5');" transform="matrix(0.9999999999999999, 0, 0, 0.9999999999999999, 0, -3.552713678800501e-15)"/>
    <path class="a" d="M 462.737 388.308 C 463.137 389.208 462.637 390.208 461.837 390.608 L 452.537 395.308 C 451.937 395.308 451.337 395.208 450.737 395.208 C 449.271 395.142 447.871 394.842 446.537 394.308 C 445.537 394.008 444.737 393.408 444.137 392.608 C 443.737 391.808 443.537 391.008 443.537 390.108 C 443.471 389.175 443.437 388.275 443.437 387.408 C 443.437 386.675 443.437 385.975 443.437 385.308 L 443.337 384.508 C 443.337 382.308 443.237 380.108 443.237 377.908 L 461.737 387.308 C 462.237 387.508 462.537 387.908 462.737 388.308 Z" style="fill: rgb(239, 82, 129);" transform="matrix(0.9999999999999999, 0, 0, 0.9999999999999999, 0, -3.552713678800501e-15)"/>
    <path class="i" d="M 429.637 340.408 C 436.937 340.408 444.037 342.708 449.937 347.008 C 457.137 352.408 461.337 360.308 461.337 368.708 C 461.437 372.508 460.537 376.208 458.737 379.608 L 458.237 380.808 L 439.637 371.308 C 435.237 368.908 431.137 371.208 431.037 375.808 L 431.037 407.508 C 431.037 407.708 413.337 407.208 413.337 407.208 L 413.337 405.908 C 413.337 399.408 409.137 393.208 404.937 387.308 L 404.937 387.208 C 403.637 385.408 402.437 383.708 401.437 382.008 C 398.037 376.608 396.837 370.108 398.037 363.908 C 400.237 352.308 410.837 342.808 423.737 340.808 C 425.604 340.542 427.471 340.408 429.337 340.408 C 429.471 340.408 429.571 340.408 429.637 340.408 Z" style="fill: url('#g6');" transform="matrix(0.9999999999999999, 0, 0, 0.9999999999999999, 0, -3.552713678800501e-15)"/>
</svg>